<svg xmlns="http://www.w3.org/2000/svg" xmlns:xlink="http://www.w3.org/1999/xlink" width="4800" zoomAndPan="magnify" viewBox="0 0 3600 1439.999935" height="1920" preserveAspectRatio="xMidYMid meet" version="1.0"><defs><g/></defs><g fill="#ffffff" fill-opacity="1"><g transform="translate(0.00008125, 866.235748)"><g><path d="M 147.65625 -422.746094 C 147.042969 -439.898438 146.429688 -457.054688 145.203125 -474.210938 C 143.976562 -489.527344 141.527344 -491.363281 126.824219 -488.914062 C 119.472656 -487.074219 112.121094 -485.851562 104.765625 -484.011719 C 88.226562 -480.949219 87.613281 -480.335938 85.160156 -463.179688 C 80.871094 -430.710938 78.421875 -398.851562 77.808594 -366.378906 C 76.585938 -308.789062 76.585938 -250.582031 77.808594 -192.992188 C 77.808594 -188.089844 77.808594 -183.800781 77.808594 -178.902344 C 77.808594 -174 74.746094 -171.546875 69.84375 -172.773438 C 60.65625 -175.226562 51.464844 -177.0625 42.886719 -179.511719 C 34.921875 -181.964844 32.472656 -178.289062 30.632812 -171.546875 C 28.796875 -163.582031 31.859375 -158.683594 39.824219 -156.230469 C 50.238281 -153.78125 60.042969 -150.71875 69.84375 -148.265625 C 75.972656 -146.429688 79.035156 -143.367188 79.648438 -137.238281 C 79.648438 -132.949219 80.261719 -128.046875 80.871094 -123.761719 C 83.324219 -82.097656 86.386719 -40.4375 89.449219 1.226562 C 90.0625 11.640625 90.675781 22.054688 92.515625 31.859375 C 94.351562 46.5625 97.414062 48.402344 112.121094 47.175781 C 118.859375 46.5625 125.597656 45.949219 132.335938 45.335938 C 150.71875 43.5 152.554688 41.660156 151.941406 24.507812 C 151.941406 19.605469 151.941406 15.316406 151.941406 10.414062 C 148.878906 -34.921875 148.265625 -80.871094 148.265625 -126.210938 C 148.265625 -142.140625 148.265625 -142.140625 163.582031 -145.203125 C 196.667969 -151.332031 226.6875 -162.972656 254.871094 -181.351562 C 325.328125 -227.914062 361.476562 -309.398438 346.160156 -387.210938 C 342.484375 -405.589844 335.132812 -421.519531 321.652344 -434.386719 C 291.019531 -463.792969 248.132812 -466.246094 210.761719 -440.511719 C 189.929688 -426.421875 174 -406.816406 160.519531 -385.984375 C 157.457031 -381.082031 155.617188 -375.570312 148.878906 -371.28125 C 148.265625 -389.660156 148.265625 -406.203125 147.65625 -422.746094 Z M 194.832031 -376.183594 C 206.472656 -394.5625 219.949219 -410.492188 237.71875 -423.359375 C 250.582031 -431.933594 254.871094 -431.933594 266.511719 -420.90625 C 276.316406 -410.492188 283.054688 -398.238281 285.507812 -384.144531 C 295.921875 -325.941406 289.183594 -270.800781 251.808594 -221.789062 C 229.140625 -192.378906 199.730469 -174 162.972656 -167.261719 C 148.878906 -164.195312 148.878906 -164.808594 148.265625 -179.511719 C 148.265625 -192.378906 148.265625 -204.632812 148.265625 -217.5 C 144.589844 -276.316406 166.035156 -327.167969 194.832031 -376.183594 Z M 194.832031 -376.183594 "/></g></g></g><g fill="#ffffff" fill-opacity="1"><g transform="translate(342.484127, 866.235748)"><g><path d="M 256.710938 -177.675781 C 246.90625 -184.414062 242.007812 -184.414062 235.878906 -177.0625 C 229.753906 -169.710938 224.851562 -162.359375 219.335938 -155.007812 C 193.605469 -118.859375 166.648438 -83.324219 137.851562 -49.625 C 132.949219 -43.5 128.046875 -37.984375 121.308594 -33.695312 C 112.121094 -27.570312 104.765625 -28.183594 96.800781 -36.761719 C 91.902344 -42.273438 87.613281 -49.015625 85.773438 -55.753906 C 75.359375 -88.835938 67.394531 -122.535156 66.167969 -157.457031 C 66.167969 -166.035156 68.621094 -169.710938 77.195312 -172.160156 C 124.984375 -186.253906 151.332031 -218.722656 158.683594 -267.125 C 162.359375 -294.082031 154.394531 -316.753906 131.726562 -332.683594 C 109.667969 -348 85.773438 -344.933594 63.105469 -332.070312 C 42.886719 -319.816406 28.183594 -302.046875 17.15625 -281.21875 C -1.226562 -245.683594 -8.578125 -207.695312 -10.414062 -167.871094 C -11.027344 -155.007812 -9.191406 -142.753906 -6.738281 -129.886719 C -1.226562 -95.578125 11.027344 -63.71875 33.695312 -36.148438 C 61.878906 -1.839844 132.335938 9.191406 167.261719 -37.984375 C 197.894531 -79.035156 227.914062 -120.695312 256.710938 -163.582031 C 259.773438 -167.871094 264.0625 -172.773438 256.710938 -177.675781 Z M 76.585938 -253.035156 C 80.261719 -268.351562 85.773438 -283.667969 91.902344 -298.371094 C 93.738281 -303.273438 96.800781 -308.789062 102.929688 -308.175781 C 108.441406 -307.5625 110.894531 -302.660156 113.34375 -297.757812 C 113.34375 -296.535156 113.957031 -295.308594 113.957031 -294.082031 C 124.371094 -262.222656 105.378906 -211.371094 76.585938 -194.21875 C 74.132812 -192.378906 71.070312 -191.152344 66.78125 -192.378906 C 66.78125 -212.597656 71.683594 -232.816406 76.585938 -253.035156 Z M 76.585938 -253.035156 "/></g></g></g><g fill="#ffffff" fill-opacity="1"><g transform="translate(573.461733, 866.235748)"><g><path d="M 60.042969 -267.738281 C 75.972656 -229.753906 91.902344 -191.765625 104.15625 -153.167969 C 110.894531 -131.726562 110.894531 -131.726562 90.0625 -121.921875 C 66.78125 -110.894531 45.335938 -98.027344 30.019531 -76.585938 C 4.289062 -39.210938 17.765625 6.125 60.65625 20.832031 C 93.125 31.859375 124.371094 28.796875 153.78125 9.804688 C 169.710938 -0.613281 180.738281 -15.316406 185.640625 -34.308594 C 189.929688 -51.464844 191.765625 -69.230469 188.703125 -87.613281 C 186.867188 -96.800781 185.640625 -105.378906 183.800781 -114.570312 C 180.738281 -130.5 180.738281 -130.5 196.054688 -136.625 C 204.632812 -139.691406 213.210938 -143.367188 221.789062 -147.042969 C 237.105469 -155.007812 251.808594 -164.808594 265.289062 -175.226562 C 268.964844 -178.289062 273.253906 -181.351562 270.800781 -186.867188 C 267.738281 -192.378906 262.222656 -193.605469 256.097656 -192.378906 C 250.582031 -191.152344 246.292969 -188.089844 242.617188 -185.027344 C 225.464844 -173.386719 207.695312 -164.195312 188.703125 -156.84375 C 174.613281 -150.71875 174 -150.71875 169.710938 -165.421875 C 151.941406 -219.335938 124.984375 -268.351562 95.578125 -316.140625 C 88.226562 -328.394531 78.421875 -338.808594 66.78125 -347.386719 C 49.625 -360.253906 37.375 -355.351562 32.472656 -335.132812 C 28.796875 -320.429688 25.730469 -305.722656 22.667969 -291.019531 C 3.0625 -202.796875 -13.480469 -113.34375 -42.886719 -27.570312 C -47.175781 -16.542969 -50.238281 -5.515625 -53.914062 5.515625 C -56.980469 12.867188 -53.914062 15.316406 -46.5625 16.542969 C -33.085938 18.992188 -29.410156 17.765625 -23.28125 3.0625 C 4.902344 -66.78125 27.570312 -138.464844 41.660156 -211.984375 C 45.335938 -232.816406 47.789062 -253.648438 54.527344 -276.929688 C 57.589844 -272.027344 59.429688 -270.1875 60.042969 -267.738281 Z M 120.695312 -16.542969 C 112.730469 4.902344 94.351562 9.804688 76.585938 -3.675781 C 59.429688 -16.542969 53.300781 -36.761719 61.265625 -57.589844 C 69.84375 -80.871094 88.226562 -94.351562 109.054688 -105.378906 C 115.183594 -107.832031 118.246094 -105.378906 119.472656 -99.867188 C 123.148438 -83.9375 126.210938 -68.007812 126.210938 -50.238281 C 126.824219 -39.824219 124.984375 -27.570312 120.695312 -16.542969 Z M 120.695312 -16.542969 "/></g></g></g><g fill="#ffffff" fill-opacity="1"><g transform="translate(814.854748, 866.235748)"><g><path d="M 75.972656 -189.316406 C 79.648438 -240.167969 83.9375 -290.40625 87 -341.257812 C 90.0625 -385.984375 93.125 -431.324219 94.964844 -476.046875 C 96.191406 -499.328125 95.578125 -499.941406 71.683594 -499.328125 C 36.148438 -499.328125 35.535156 -499.328125 28.796875 -464.40625 C 14.703125 -396.398438 4.902344 -327.78125 0 -258.546875 C -4.902344 -197.28125 -5.515625 -136.011719 1.226562 -75.359375 C 3.675781 -55.753906 6.738281 -36.148438 11.640625 -17.15625 C 14.703125 -5.515625 22.667969 0 34.308594 0.613281 C 39.210938 0.613281 44.726562 0.613281 49.625 0 C 58.816406 -0.613281 64.332031 -4.902344 64.945312 -15.316406 C 67.394531 -34.308594 71.070312 -52.691406 75.359375 -71.070312 C 90.0625 -136.625 118.246094 -195.441406 154.394531 -251.195312 C 159.296875 -257.9375 164.195312 -267.738281 174 -265.902344 C 185.027344 -262.835938 181.351562 -251.808594 181.964844 -243.230469 C 182.578125 -191.765625 183.191406 -140.914062 184.414062 -89.449219 C 184.414062 -69.84375 185.640625 -50.238281 188.089844 -30.632812 C 191.152344 -13.480469 194.832031 3.675781 202.796875 18.992188 C 207.695312 28.183594 213.824219 35.535156 224.238281 37.984375 C 246.292969 42.273438 266.511719 39.210938 282.441406 20.832031 C 294.082031 6.738281 302.660156 -8.578125 310.625 -25.121094 C 332.070312 -71.070312 348.613281 -119.472656 366.378906 -166.648438 C 371.894531 -181.351562 371.28125 -181.351562 356.574219 -185.640625 C 346.160156 -188.089844 343.097656 -183.800781 340.035156 -175.835938 C 325.328125 -140.914062 310.625 -106.605469 295.921875 -72.296875 C 286.730469 -49.625 277.542969 -27.570312 264.675781 -6.738281 C 259.773438 1.839844 255.484375 10.414062 246.292969 15.929688 C 240.78125 8.578125 239.554688 0.613281 237.71875 -7.351562 C 233.429688 -31.246094 230.976562 -55.753906 230.976562 -79.648438 C 230.976562 -121.308594 230.976562 -162.972656 230.976562 -204.632812 C 230.976562 -225.464844 229.140625 -246.292969 222.402344 -265.902344 C 214.4375 -291.632812 191.765625 -302.660156 166.035156 -294.695312 C 154.394531 -291.019531 144.589844 -283.667969 136.011719 -275.089844 C 123.148438 -262.222656 112.730469 -247.519531 103.542969 -232.203125 C 94.964844 -218.113281 87 -203.40625 78.421875 -189.316406 C 77.808594 -189.316406 76.585938 -189.316406 75.972656 -189.316406 Z M 75.972656 -189.316406 "/></g></g></g><g fill="#ffffff" fill-opacity="1"><g transform="translate(1140.796591, 866.235748)"><g><path d="M 328.394531 -171.546875 C 318.589844 -175.835938 316.753906 -175.226562 310.625 -162.972656 C 297.148438 -136.625 284.894531 -109.667969 271.414062 -83.9375 C 255.484375 -52.691406 240.167969 -21.445312 219.949219 6.738281 C 216.886719 11.640625 214.4375 17.765625 207.695312 19.605469 C 204.019531 12.253906 204.019531 5.515625 204.019531 -1.839844 C 203.40625 -25.730469 204.019531 -50.238281 205.859375 -74.132812 C 209.535156 -139.691406 213.210938 -204.632812 213.824219 -270.1875 C 213.824219 -277.542969 213.824219 -284.894531 211.984375 -292.246094 C 210.761719 -295.921875 209.535156 -299.597656 205.246094 -299.597656 C 188.089844 -299.597656 170.9375 -301.433594 154.394531 -295.921875 C 148.878906 -294.082031 145.203125 -293.472656 139.691406 -294.695312 C 126.210938 -297.757812 112.730469 -300.210938 98.640625 -297.148438 C 55.753906 -289.183594 29.410156 -261.613281 12.867188 -223.625 C -1.226562 -191.765625 -5.515625 -158.070312 -3.0625 -123.761719 C -2.449219 -107.21875 0.613281 -90.675781 7.351562 -74.746094 C 13.480469 -58.816406 25.730469 -52.078125 42.273438 -52.078125 C 55.753906 -51.464844 67.394531 -56.367188 76.585938 -66.167969 C 85.160156 -75.972656 93.125 -87 99.867188 -98.640625 C 106.605469 -110.28125 113.34375 -121.921875 120.695312 -134.175781 C 124.984375 -130.5 123.148438 -126.824219 123.761719 -123.761719 C 124.984375 -99.867188 125.597656 -75.359375 129.886719 -51.464844 C 133.5625 -25.121094 138.464844 1.226562 151.332031 25.121094 C 168.484375 56.980469 213.210938 62.492188 237.71875 35.535156 C 246.90625 25.730469 254.257812 14.703125 260.386719 2.449219 C 286.730469 -48.402344 311.851562 -100.476562 335.132812 -153.167969 C 340.648438 -165.421875 340.035156 -166.648438 328.394531 -171.546875 Z M 139.691406 -251.195312 C 139.078125 -244.457031 137.851562 -237.105469 134.789062 -230.976562 C 113.957031 -181.964844 91.289062 -134.175781 63.71875 -88.835938 C 59.429688 -82.097656 56.367188 -71.683594 46.5625 -74.132812 C 36.761719 -76.585938 41.660156 -87.613281 40.4375 -94.964844 C 40.4375 -98.027344 40.4375 -101.703125 40.4375 -105.378906 C 41.660156 -149.492188 50.238281 -192.378906 74.132812 -230.976562 C 80.871094 -241.394531 88.226562 -251.808594 97.414062 -261 C 102.316406 -265.902344 107.832031 -269.578125 115.183594 -271.414062 C 131.113281 -275.703125 141.527344 -267.738281 139.691406 -251.195312 Z M 139.691406 -251.195312 "/></g></g></g><g fill="#b72222" fill-opacity="1"><g transform="translate(1456.31471, 866.235748)"><g><path d="M 156.84375 -119.472656 C 159.90625 -98.027344 164.808594 -76.585938 173.386719 -55.753906 C 180.125 -37.375 189.316406 -20.21875 203.40625 -6.125 C 241.394531 32.472656 301.433594 22.667969 324.71875 -25.730469 C 335.132812 -47.175781 340.648438 -69.84375 345.546875 -93.125 C 349.222656 -112.730469 352.289062 -132.949219 354.738281 -153.167969 C 355.964844 -160.519531 358.414062 -162.972656 365.765625 -161.746094 C 374.34375 -159.90625 382.921875 -158.683594 391.5 -156.84375 C 414.167969 -153.167969 436.222656 -152.554688 458.894531 -156.230469 C 468.695312 -158.070312 470.535156 -161.132812 469.921875 -171.546875 C 469.921875 -181.351562 463.179688 -180.738281 457.054688 -180.738281 C 453.992188 -180.738281 450.929688 -180.125 447.863281 -179.511719 C 424.582031 -176.449219 401.914062 -180.738281 379.246094 -185.027344 C 362.089844 -188.703125 358.414062 -195.441406 358.414062 -213.210938 C 358.414062 -239.554688 357.1875 -265.289062 352.898438 -291.019531 C 349.222656 -310.011719 344.324219 -328.394531 333.90625 -344.324219 C 321.652344 -363.929688 302.046875 -370.054688 283.054688 -360.863281 C 270.1875 -354.738281 262.222656 -344.933594 257.9375 -331.457031 C 253.035156 -316.753906 253.035156 -301.433594 256.097656 -286.730469 C 264.0625 -248.132812 283.054688 -215.660156 311.238281 -188.703125 C 318.589844 -181.351562 321.042969 -174.613281 320.429688 -164.195312 C 317.363281 -128.660156 311.238281 -93.738281 299.597656 -59.429688 C 295.921875 -49.625 291.019531 -40.4375 286.730469 -30.632812 C 283.667969 -23.894531 279.378906 -17.15625 270.800781 -17.15625 C 261 -17.15625 257.9375 -24.507812 255.484375 -31.859375 C 251.808594 -40.4375 248.132812 -49.625 245.070312 -59.429688 C 228.527344 -120.695312 215.046875 -182.578125 210.148438 -246.292969 C 207.082031 -279.378906 204.019531 -282.441406 170.9375 -281.21875 C 158.070312 -281.21875 156.84375 -279.992188 153.78125 -266.511719 C 137.851562 -185.640625 113.957031 -106.605469 91.902344 -26.957031 C 89.449219 -19.605469 90.0625 -7.351562 80.871094 -8.578125 C 72.296875 -9.191406 72.90625 -20.832031 71.683594 -28.796875 C 61.265625 -94.964844 63.105469 -161.132812 66.167969 -227.300781 C 66.78125 -247.519531 69.230469 -267.738281 70.457031 -287.957031 C 71.070312 -303.886719 68.007812 -306.949219 51.464844 -306.949219 C 45.335938 -306.949219 39.210938 -305.722656 32.472656 -305.722656 C 24.507812 -306.335938 19.605469 -302.046875 17.765625 -294.695312 C 16.542969 -290.40625 15.316406 -286.730469 14.089844 -283.054688 C -3.675781 -208.921875 -8.578125 -134.175781 1.839844 -59.429688 C 5.515625 -30.019531 13.480469 -1.226562 26.957031 25.121094 C 33.085938 37.375 42.273438 44.726562 56.367188 46.5625 C 82.710938 49.625 94.964844 43.5 105.992188 18.992188 C 119.472656 -12.253906 128.660156 -44.726562 137.238281 -77.808594 C 142.140625 -95.578125 147.042969 -113.34375 152.554688 -134.175781 C 156.84375 -127.4375 156.84375 -123.148438 156.84375 -119.472656 Z M 305.113281 -314.300781 C 316.140625 -297.148438 316.753906 -278.152344 318.589844 -259.160156 C 308.789062 -275.703125 302.046875 -294.082031 305.113281 -314.300781 Z M 305.113281 -314.300781 "/></g></g></g><g fill="#b72222" fill-opacity="1"><g transform="translate(1910.305174, 866.235748)"><g><path d="M 328.394531 -171.546875 C 318.589844 -175.835938 316.753906 -175.226562 310.625 -162.972656 C 297.148438 -136.625 284.894531 -109.667969 271.414062 -83.9375 C 255.484375 -52.691406 240.167969 -21.445312 219.949219 6.738281 C 216.886719 11.640625 214.4375 17.765625 207.695312 19.605469 C 204.019531 12.253906 204.019531 5.515625 204.019531 -1.839844 C 203.40625 -25.730469 204.019531 -50.238281 205.859375 -74.132812 C 209.535156 -139.691406 213.210938 -204.632812 213.824219 -270.1875 C 213.824219 -277.542969 213.824219 -284.894531 211.984375 -292.246094 C 210.761719 -295.921875 209.535156 -299.597656 205.246094 -299.597656 C 188.089844 -299.597656 170.9375 -301.433594 154.394531 -295.921875 C 148.878906 -294.082031 145.203125 -293.472656 139.691406 -294.695312 C 126.210938 -297.757812 112.730469 -300.210938 98.640625 -297.148438 C 55.753906 -289.183594 29.410156 -261.613281 12.867188 -223.625 C -1.226562 -191.765625 -5.515625 -158.070312 -3.0625 -123.761719 C -2.449219 -107.21875 0.613281 -90.675781 7.351562 -74.746094 C 13.480469 -58.816406 25.730469 -52.078125 42.273438 -52.078125 C 55.753906 -51.464844 67.394531 -56.367188 76.585938 -66.167969 C 85.160156 -75.972656 93.125 -87 99.867188 -98.640625 C 106.605469 -110.28125 113.34375 -121.921875 120.695312 -134.175781 C 124.984375 -130.5 123.148438 -126.824219 123.761719 -123.761719 C 124.984375 -99.867188 125.597656 -75.359375 129.886719 -51.464844 C 133.5625 -25.121094 138.464844 1.226562 151.332031 25.121094 C 168.484375 56.980469 213.210938 62.492188 237.71875 35.535156 C 246.90625 25.730469 254.257812 14.703125 260.386719 2.449219 C 286.730469 -48.402344 311.851562 -100.476562 335.132812 -153.167969 C 340.648438 -165.421875 340.035156 -166.648438 328.394531 -171.546875 Z M 139.691406 -251.195312 C 139.078125 -244.457031 137.851562 -237.105469 134.789062 -230.976562 C 113.957031 -181.964844 91.289062 -134.175781 63.71875 -88.835938 C 59.429688 -82.097656 56.367188 -71.683594 46.5625 -74.132812 C 36.761719 -76.585938 41.660156 -87.613281 40.4375 -94.964844 C 40.4375 -98.027344 40.4375 -101.703125 40.4375 -105.378906 C 41.660156 -149.492188 50.238281 -192.378906 74.132812 -230.976562 C 80.871094 -241.394531 88.226562 -251.808594 97.414062 -261 C 102.316406 -265.902344 107.832031 -269.578125 115.183594 -271.414062 C 131.113281 -275.703125 141.527344 -267.738281 139.691406 -251.195312 Z M 139.691406 -251.195312 "/></g></g></g><g fill="#b72222" fill-opacity="1"><g transform="translate(2225.831639, 866.235748)"><g><path d="M 117.632812 -295.921875 C 102.316406 -225.464844 94.964844 -154.394531 95.578125 -82.710938 C 95.578125 -44.726562 101.703125 -7.964844 120.695312 26.34375 C 124.371094 33.085938 128.660156 39.824219 134.175781 45.949219 C 151.332031 66.167969 203.40625 67.394531 225.464844 45.949219 C 243.230469 28.183594 257.324219 7.964844 268.964844 -14.089844 C 296.535156 -65.554688 314.300781 -121.308594 330.84375 -177.0625 C 332.683594 -183.800781 334.519531 -190.542969 335.746094 -197.28125 C 336.96875 -200.34375 337.582031 -203.40625 334.519531 -205.246094 C 327.78125 -209.535156 320.429688 -208.921875 313.078125 -208.921875 C 307.5625 -208.921875 306.335938 -202.796875 305.113281 -198.507812 C 295.921875 -173.386719 286.117188 -147.65625 277.542969 -121.921875 C 265.289062 -84.550781 251.808594 -46.5625 231.589844 -12.253906 C 221.789062 4.289062 211.371094 20.21875 196.667969 33.085938 C 186.867188 41.660156 183.191406 41.050781 178.902344 28.183594 C 171.546875 6.738281 169.097656 -15.929688 167.871094 -38.597656 C 166.035156 -92.515625 169.097656 -145.816406 177.0625 -199.117188 C 181.964844 -230.367188 187.476562 -261.613281 191.152344 -293.472656 C 194.21875 -316.140625 185.640625 -325.328125 162.359375 -325.328125 C 146.429688 -325.328125 129.886719 -325.328125 113.957031 -326.554688 C 99.867188 -327.167969 85.773438 -329.003906 74.132812 -335.746094 C 60.65625 -343.710938 46.5625 -344.324219 32.472656 -346.160156 C 23.28125 -347.386719 17.765625 -344.933594 16.542969 -335.132812 C 15.929688 -330.230469 14.703125 -325.941406 14.089844 -321.652344 C 12.253906 -293.472656 9.191406 -265.289062 7.351562 -236.492188 C 4.289062 -176.449219 -1.839844 -117.019531 -11.640625 -57.589844 C -14.703125 -42.273438 -17.15625 -26.957031 -17.15625 -11.640625 C -17.15625 -7.351562 -17.765625 -3.675781 -12.867188 -1.226562 C 3.675781 5.515625 13.480469 0.613281 17.765625 -15.929688 C 17.765625 -17.765625 18.378906 -19.605469 18.378906 -21.445312 C 36.148438 -101.089844 49.015625 -181.351562 53.914062 -262.835938 C 55.140625 -279.992188 56.980469 -297.148438 58.203125 -316.140625 C 78.421875 -310.625 98.027344 -310.011719 118.246094 -307.5625 C 120.085938 -302.046875 118.246094 -298.984375 117.632812 -295.921875 Z M 117.632812 -295.921875 "/></g></g></g><g fill="#b72222" fill-opacity="1"><g transform="translate(2518.689197, 866.235748)"><g><path d="M 180.125 -178.902344 C 169.710938 -182.578125 168.484375 -182.578125 162.359375 -171.546875 C 161.746094 -169.710938 160.519531 -167.261719 159.296875 -165.421875 C 139.078125 -125.597656 118.859375 -86.386719 98.640625 -46.5625 C 94.964844 -39.210938 91.289062 -32.472656 87 -25.730469 C 80.871094 -16.542969 75.359375 -17.15625 69.84375 -26.34375 C 64.945312 -35.535156 61.878906 -45.949219 60.042969 -55.753906 C 55.753906 -82.097656 55.753906 -109.054688 54.527344 -135.402344 C 52.691406 -183.800781 57.589844 -232.203125 61.265625 -280.605469 C 63.105469 -304.5 62.492188 -305.113281 37.375 -305.722656 C 36.148438 -305.722656 34.308594 -305.722656 32.472656 -305.722656 C 26.34375 -306.335938 22.667969 -303.886719 20.832031 -297.757812 C 18.992188 -292.859375 16.542969 -288.570312 15.316406 -283.054688 C 3.675781 -237.71875 -3.675781 -191.765625 -3.675781 -141.527344 C -4.289062 -118.246094 -2.449219 -91.902344 3.675781 -65.554688 C 7.964844 -49.015625 13.480469 -33.695312 23.894531 -20.21875 C 49.625 12.867188 102.929688 9.804688 123.761719 -26.34375 C 129.273438 -36.148438 134.175781 -47.175781 138.464844 -57.589844 C 153.78125 -92.515625 169.097656 -127.4375 184.414062 -162.359375 C 186.867188 -169.097656 189.929688 -175.226562 180.125 -178.902344 Z M 50.851562 -338.195312 C 67.394531 -338.808594 77.195312 -348 77.195312 -363.316406 C 77.195312 -378.019531 66.78125 -387.210938 49.015625 -386.597656 C 35.535156 -386.597656 24.507812 -373.730469 25.121094 -359.027344 C 25.121094 -344.933594 33.695312 -338.195312 50.851562 -338.195312 Z M 50.851562 -338.195312 "/></g></g></g><g fill="#e2a165" fill-opacity="1"><g transform="translate(2682.272578, 866.235748)"><g/></g></g><g fill="#ffffff" fill-opacity="1"><g transform="translate(125.63561, 1250.009075)"><g/></g></g><g fill="#ffffff" fill-opacity="1"><g transform="translate(251.271139, 1250.009075)"><g/></g></g><g fill="#ffffff" fill-opacity="1"><g transform="translate(376.906651, 1250.009075)"><g/></g></g><g fill="#ffffff" fill-opacity="1"><g transform="translate(502.542197, 1250.009075)"><g/></g></g><g fill="#ffffff" fill-opacity="1"><g transform="translate(628.177742, 1250.009075)"><g/></g></g><g fill="#ffffff" fill-opacity="1"><g transform="translate(753.813287, 1250.009075)"><g/></g></g><g fill="#ffffff" fill-opacity="1"><g transform="translate(879.448832, 1250.009075)"><g/></g></g><g fill="#ffffff" fill-opacity="1"><g transform="translate(1005.084378, 1250.009075)"><g/></g></g><g fill="#ffffff" fill-opacity="1"><g transform="translate(1130.719856, 1250.009075)"><g/></g></g><g fill="#ffffff" fill-opacity="1"><g transform="translate(1256.355401, 1250.009075)"><g/></g></g><g fill="#ffffff" fill-opacity="1"><g transform="translate(1381.990947, 1250.009075)"><g/></g></g><g fill="#ffffff" fill-opacity="1"><g transform="translate(1507.626492, 1250.009075)"><g/></g></g><g fill="#ffffff" fill-opacity="1"><g transform="translate(1633.262037, 1250.009075)"><g/></g></g><g fill="#e2a165" fill-opacity="1"><g transform="translate(3525.692352, 375.154356)"><g/></g></g><g fill="#ffffff" fill-opacity="1"><g transform="translate(1397.426912, 818.404318)"><g/></g></g><g fill="#ffffff" fill-opacity="1"><g transform="translate(1542.431037, 818.404318)"><g/></g></g><g fill="#ffffff" fill-opacity="1"><g transform="translate(1687.435162, 818.404318)"><g/></g></g><g fill="#ffffff" fill-opacity="1"><g transform="translate(1832.439279, 818.404318)"><g/></g></g><g fill="#ffffff" fill-opacity="1"><g transform="translate(1977.443419, 818.404318)"><g/></g></g><g fill="#ffffff" fill-opacity="1"><g transform="translate(2122.447559, 818.404318)"><g/></g></g><g fill="#ffffff" fill-opacity="1"><g transform="translate(2267.451654, 818.404318)"><g/></g></g><g fill="#ffffff" fill-opacity="1"><g transform="translate(2412.455794, 818.404318)"><g/></g></g><g fill="#ffffff" fill-opacity="1"><g transform="translate(2557.459934, 818.404318)"><g/></g></g><g fill="#ffffff" fill-opacity="1"><g transform="translate(2702.464074, 818.404318)"><g/></g></g><g fill="#ffffff" fill-opacity="1"><g transform="translate(2847.468214, 818.404318)"><g/></g></g><g fill="#ffffff" fill-opacity="1"><g transform="translate(2992.472263, 818.404318)"><g/></g></g><g fill="#ffffff" fill-opacity="1"><g transform="translate(3137.476403, 818.404318)"><g/></g></g><g fill="#ffffff" fill-opacity="1"><g transform="translate(3282.480543, 818.404318)"><g/></g></g><g fill="#ffffff" fill-opacity="1"><g transform="translate(3427.484683, 818.404318)"><g/></g></g><g fill="#ffffff" fill-opacity="1"><g transform="translate(3572.488823, 818.404318)"><g/></g></g><g fill="#ffffff" fill-opacity="1"><g transform="translate(2398.9112, 1233.904282)"><g><path d="M 48.488281 -228.128906 C 43.410156 -184.257812 41.101562 -139.925781 39.714844 -95.59375 C 38.789062 -70.65625 39.714844 -45.71875 41.101562 -20.78125 C 42.023438 -5.078125 43.871094 -3.695312 60.035156 -3.234375 C 61.882812 -3.234375 63.265625 -2.769531 65.113281 -2.769531 C 84.507812 -2.308594 84.972656 -2.308594 84.507812 -22.167969 C 84.046875 -60.035156 87.28125 -97.4375 90.972656 -135.308594 C 94.667969 -172.25 98.363281 -208.734375 101.59375 -245.675781 C 102.980469 -258.605469 102.980469 -272 103.441406 -284.929688 C 103.441406 -293.703125 99.75 -300.167969 92.359375 -303.863281 C 79.429688 -310.789062 64.191406 -306.632812 56.800781 -294.164062 C 45.71875 -274.308594 33.25 -255.835938 16.625 -240.132812 C 12.929688 -236.441406 11.546875 -233.207031 15.699219 -229.050781 C 19.394531 -224.894531 21.703125 -218.890625 29.554688 -222.585938 C 35.558594 -225.820312 40.636719 -230.4375 48.488281 -235.054688 C 48.488281 -231.824219 48.949219 -229.976562 48.488281 -228.128906 Z M 48.488281 -228.128906 "/></g></g></g><g fill="#ffffff" fill-opacity="1"><g transform="translate(2525.905329, 1233.904282)"><g><path d="M 48.488281 -228.128906 C 43.410156 -184.257812 41.101562 -139.925781 39.714844 -95.59375 C 38.789062 -70.65625 39.714844 -45.71875 41.101562 -20.78125 C 42.023438 -5.078125 43.871094 -3.695312 60.035156 -3.234375 C 61.882812 -3.234375 63.265625 -2.769531 65.113281 -2.769531 C 84.507812 -2.308594 84.972656 -2.308594 84.507812 -22.167969 C 84.046875 -60.035156 87.28125 -97.4375 90.972656 -135.308594 C 94.667969 -172.25 98.363281 -208.734375 101.59375 -245.675781 C 102.980469 -258.605469 102.980469 -272 103.441406 -284.929688 C 103.441406 -293.703125 99.75 -300.167969 92.359375 -303.863281 C 79.429688 -310.789062 64.191406 -306.632812 56.800781 -294.164062 C 45.71875 -274.308594 33.25 -255.835938 16.625 -240.132812 C 12.929688 -236.441406 11.546875 -233.207031 15.699219 -229.050781 C 19.394531 -224.894531 21.703125 -218.890625 29.554688 -222.585938 C 35.558594 -225.820312 40.636719 -230.4375 48.488281 -235.054688 C 48.488281 -231.824219 48.949219 -229.976562 48.488281 -228.128906 Z M 48.488281 -228.128906 "/></g></g></g><g fill="#ffffff" fill-opacity="1"><g transform="translate(2652.899458, 1233.904282)"><g/></g></g><g fill="#ffffff" fill-opacity="1"><g transform="translate(2797.903575, 1233.904282)"><g><path d="M 2.769531 -54.953125 C 6.925781 -30.941406 13.390625 -7.390625 24.9375 14.316406 C 30.480469 24.011719 37.40625 32.324219 48.488281 36.019531 C 76.660156 44.792969 102.980469 40.175781 120.066406 14.777344 C 122.839844 11.082031 125.148438 7.390625 126.996094 3.695312 C 146.851562 -33.25 155.625 -73.886719 167.171875 -113.601562 C 167.632812 -115.910156 168.554688 -118.21875 166.707031 -119.605469 C 162.089844 -123.300781 156.550781 -125.148438 151.007812 -124.683594 C 145.929688 -124.222656 145.464844 -119.605469 144.082031 -115.910156 C 138.078125 -98.363281 132.535156 -80.816406 126.070312 -63.265625 C 117.296875 -40.175781 110.371094 -16.625 97.4375 4.15625 C 94.667969 8.773438 91.898438 12.929688 88.664062 17.085938 C 78.96875 27.246094 72.964844 26.324219 66.960938 13.855469 C 65.113281 10.160156 63.726562 6.003906 62.34375 1.847656 C 57.726562 -19.394531 53.570312 -40.175781 53.570312 -61.417969 C 52.644531 -98.824219 53.105469 -136.230469 55.878906 -173.636719 C 57.726562 -207.347656 59.570312 -240.597656 63.726562 -273.847656 C 65.113281 -287.238281 65.113281 -287.238281 78.503906 -288.160156 C 114.527344 -290.007812 150.546875 -291.855469 186.566406 -294.164062 C 190.261719 -294.164062 194.417969 -295.089844 198.109375 -295.550781 C 201.34375 -296.011719 202.265625 -297.859375 202.730469 -300.628906 C 204.113281 -310.328125 202.265625 -313.558594 192.109375 -314.023438 C 181.023438 -314.484375 169.480469 -314.484375 158.398438 -314.945312 C 132.074219 -315.40625 106.214844 -312.636719 79.890625 -312.636719 C 67.421875 -312.175781 67.421875 -312.636719 68.347656 -324.644531 C 68.808594 -332.496094 69.269531 -340.34375 69.269531 -348.195312 C 69.269531 -357.894531 68.347656 -358.816406 59.109375 -359.277344 C 50.796875 -359.738281 42.484375 -359.277344 34.171875 -359.738281 C 27.246094 -359.738281 24.011719 -356.96875 21.703125 -350.964844 C 17.546875 -339.882812 13.855469 -328.339844 12.007812 -316.792969 C 10.621094 -310.328125 7.390625 -307.558594 0.460938 -307.09375 C -11.082031 -306.171875 -22.628906 -304.324219 -34.171875 -302.476562 C -42.484375 -301.554688 -43.871094 -299.246094 -43.871094 -291.855469 C -43.871094 -283.542969 -37.867188 -284.003906 -32.789062 -284.003906 C -24.011719 -283.542969 -15.699219 -283.542969 -6.925781 -284.003906 C 5.078125 -284.003906 5.078125 -284.003906 3.695312 -272.460938 C -0.921875 -237.824219 -4.617188 -203.191406 -3.695312 -165.785156 C -5.542969 -130.226562 -3.234375 -92.820312 2.769531 -54.953125 Z M 2.769531 -54.953125 "/></g></g></g><g fill="#ffffff" fill-opacity="1"><g transform="translate(2942.445918, 1233.904282)"><g><path d="M 113.140625 -131.613281 C 116.371094 -131.152344 119.144531 -130.226562 121.914062 -129.765625 C 148.699219 -123.300781 175.019531 -128.378906 200.882812 -134.84375 C 206.421875 -136.230469 207.808594 -139 206.421875 -144.542969 C 205.5 -149.621094 201.804688 -150.085938 197.648438 -149.160156 C 192.570312 -147.773438 187.488281 -147.3125 182.410156 -145.929688 C 150.085938 -137.617188 124.222656 -148.238281 101.59375 -170.863281 C 97.902344 -174.558594 94.207031 -178.253906 90.511719 -181.949219 C 85.894531 -187.027344 80.816406 -191.644531 75.273438 -195.800781 C 61.417969 -205.960938 50.796875 -205.960938 37.40625 -195.339844 C 29.09375 -189.335938 23.089844 -181.488281 17.546875 -173.175781 C -0.460938 -145.464844 -9.699219 -114.988281 -12.46875 -82.199219 C -14.316406 -64.191406 -11.546875 -46.640625 -3.234375 -30.480469 C 4.617188 -15.238281 16.164062 -4.617188 32.789062 -0.921875 C 65.574219 6.925781 90.511719 -6.003906 103.441406 -36.945312 C 114.988281 -65.574219 119.144531 -94.667969 111.292969 -125.148438 C 110.832031 -126.53125 111.292969 -128.378906 110.832031 -130.6875 C 112.679688 -131.152344 112.679688 -131.613281 113.140625 -131.613281 Z M 66.035156 -161.628906 C 90.511719 -120.992188 95.59375 -78.503906 74.8125 -35.097656 C 71.578125 -29.09375 68.347656 -23.550781 63.265625 -18.933594 C 57.261719 -13.390625 51.722656 -13.855469 46.640625 -20.78125 C 43.410156 -24.9375 42.023438 -29.554688 40.175781 -34.636719 C 34.636719 -54.492188 34.636719 -74.347656 37.40625 -94.207031 C 40.175781 -112.679688 43.410156 -131.152344 49.414062 -148.699219 C 51.722656 -155.625 54.492188 -162.550781 59.109375 -168.09375 C 62.804688 -166.707031 64.652344 -163.9375 66.035156 -161.628906 Z M 66.035156 -161.628906 "/></g></g></g><g fill="#ffffff" fill-opacity="1"><g transform="translate(3126.702737, 1233.904282)"><g/></g></g><g fill="#ffffff" fill-opacity="1"><g transform="translate(3271.706877, 1233.904282)"><g><path d="M 48.488281 -228.128906 C 43.410156 -184.257812 41.101562 -139.925781 39.714844 -95.59375 C 38.789062 -70.65625 39.714844 -45.71875 41.101562 -20.78125 C 42.023438 -5.078125 43.871094 -3.695312 60.035156 -3.234375 C 61.882812 -3.234375 63.265625 -2.769531 65.113281 -2.769531 C 84.507812 -2.308594 84.972656 -2.308594 84.507812 -22.167969 C 84.046875 -60.035156 87.28125 -97.4375 90.972656 -135.308594 C 94.667969 -172.25 98.363281 -208.734375 101.59375 -245.675781 C 102.980469 -258.605469 102.980469 -272 103.441406 -284.929688 C 103.441406 -293.703125 99.75 -300.167969 92.359375 -303.863281 C 79.429688 -310.789062 64.191406 -306.632812 56.800781 -294.164062 C 45.71875 -274.308594 33.25 -255.835938 16.625 -240.132812 C 12.929688 -236.441406 11.546875 -233.207031 15.699219 -229.050781 C 19.394531 -224.894531 21.703125 -218.890625 29.554688 -222.585938 C 35.558594 -225.820312 40.636719 -230.4375 48.488281 -235.054688 C 48.488281 -231.824219 48.949219 -229.976562 48.488281 -228.128906 Z M 48.488281 -228.128906 "/></g></g></g><g fill="#ffffff" fill-opacity="1"><g transform="translate(3398.701036, 1233.904282)"><g><path d="M 48.488281 -228.128906 C 43.410156 -184.257812 41.101562 -139.925781 39.714844 -95.59375 C 38.789062 -70.65625 39.714844 -45.71875 41.101562 -20.78125 C 42.023438 -5.078125 43.871094 -3.695312 60.035156 -3.234375 C 61.882812 -3.234375 63.265625 -2.769531 65.113281 -2.769531 C 84.507812 -2.308594 84.972656 -2.308594 84.507812 -22.167969 C 84.046875 -60.035156 87.28125 -97.4375 90.972656 -135.308594 C 94.667969 -172.25 98.363281 -208.734375 101.59375 -245.675781 C 102.980469 -258.605469 102.980469 -272 103.441406 -284.929688 C 103.441406 -293.703125 99.75 -300.167969 92.359375 -303.863281 C 79.429688 -310.789062 64.191406 -306.632812 56.800781 -294.164062 C 45.71875 -274.308594 33.25 -255.835938 16.625 -240.132812 C 12.929688 -236.441406 11.546875 -233.207031 15.699219 -229.050781 C 19.394531 -224.894531 21.703125 -218.890625 29.554688 -222.585938 C 35.558594 -225.820312 40.636719 -230.4375 48.488281 -235.054688 C 48.488281 -231.824219 48.949219 -229.976562 48.488281 -228.128906 Z M 48.488281 -228.128906 "/></g></g></g></svg>